<svg viewBox="0 0 87.5 1700" preserveAspectRatio="none">
	<path pathLength="1" class="line" d="M75,0v50v50v50v50v50v50v50v50v50v50v50v50v50v50v50v50v50v50v50v50v50v50v50v50v50v50v50v50v50v50v50v50v50v50"/>
	<defs>
		<path class="zigzag" d="M75,1700l-50-50l50-50l-50-50l50-50l-50-50l50-50l-50-50l50-50l-50-50l50-50l-50-50l50-50l-50-50l50-50l-50-50 l50-50l-50-50l50-50l-50-50l50-50l-50-50l50-50l-50-50l50-50l-50-50l50-50l-50-50l50-50l-50-50l50-50l-50-50l50-50L25,50L75,0"/>	
		<path class="linecopy" d="M75,0v50v50v50v50v50v50v50v50v50v50v50v50v50v50v50v50v50v50v50v50v50v50v50v50v50v50v50v50v50v50v50v50v50v50"/>
	</defs>
</svg>
